<?xml version="1.0" encoding="utf-8"?>
<?xml-stylesheet type="text/xsl" href="rss1.xsl"?>
<rss version="2.0" xmlns:atom="http://www.w3.org/2005/Atom" xmlns:content="http://purl.org/rss/1.0/modules/content/" xmlns:dc="http://purl.org/dc/elements/1.1/" xmlns:media="http://search.yahoo.com/mrss/">
<channel>
 <title>Getty</title>
 <link>http://www.gettyimg.com/</link>
 <atom:link href="http://www.gettyimg.com/" rel="self" type="application/rss+xml" />

 
                <item>
                <title><![CDATA[【Albums (lossless)】FLAC - Leslie Carter - Like Wow! (Unreleased)]]></title>
                <link><![CDATA[https://sharemania.us/threads/leslie-carter-like-wow-unreleased.249214/]]></link>
                <description><![CDATA[<article>
<blockquote class="messageText SelectQuoteContainer ugc baseHtml">
<div style="text-align: center"><img src="https://i.imgur.com/veEVUNl.png" class="bbCodeImage LbImage" alt="[​IMG]" data-url="https://i.imgur.com/veEVUNl.png" style=""> <br>
<br>
<span style="font-family: 'Verdana'"><span style="font-size: 12px">1. Be Mine<br>
2. Like Wow<br>
3. They Don't Know<br>
4. I Need to Hear It<br>
5. Too Much Too Soon<br>
6. Shy Guy<br>
7. I Wanna Be Your Girl<br>
8. True<br>
9. Boy Like That<br>
10. Mine<br>
<br>
<div class="bbCodeBlock bbCodeVfcHH HiddenContent">
<div class="attribution type">Hidden Content:</div>
<blockquote>You must reply before you can see the hidden data contained here.</blockquote>
</div></span></span>​</div>
<div class="messageTextEndMarker">&nbsp;</div>
</blockquote>
</article>]]></description>
                <author><![CDATA[OhSnapItzTrey]]></author>
                </item>

                
                <item>
                <title><![CDATA[【Albums (lossless)】ALAC - Ariana Grande - My Everything (Bonus Tracks Edition) (2014) [Apple Lossless 24 bits/44,1 kHz]]]></title>
                <link><![CDATA[https://sharemania.us/threads/ariana-grande-my-everything-bonus-tracks-edition-2014-apple-lossless-24-bits-44-1-khz.249215/]]></link>
                <description><![CDATA[<article>
<blockquote class="messageText SelectQuoteContainer ugc baseHtml">
<img src="https://a5.mzstatic.com/us/r1000/0/Music126/v4/85/00/a1/8500a13b-05a6-9e40-dbe0-8a3e48206c24/14UMGIM28138.rgb.jpg" class="bbCodeImage LbImage" alt="[​IMG]" data-url="https://a5.mzstatic.com/us/r1000/0/Music126/v4/85/00/a1/8500a13b-05a6-9e40-dbe0-8a3e48206c24/14UMGIM28138.rgb.jpg" style=""><br>
<div style="text-align: center"><img src="https://bendodson.s3-eu-west-1.amazonaws.com/apple-music/lossless.png" class="bbCodeImage LbImage" alt="[​IMG]" data-url="https://bendodson.s3-eu-west-1.amazonaws.com/apple-music/lossless.png" style="">​</div>
<div class="ToggleTriggerAnchor bbCodeSpoilerContainer">
<button type="button" class="button bbCodeSpoilerButton ToggleTrigger Tooltip JsOnly" data-target="> .SpoilerTarget"><span>Spoiler: <span class="SpoilerTitle">MediaInfo</span></span></button>
<div class="SpoilerTarget bbCodeSpoilerText">
<div class="bbCodeBlock bbCodeCode">
<div class="type">Code:</div>
<pre>General
Format                                   : MPEG-4
Format profile                           : Apple audio with iTunes info
Codec ID                                 : M4A  (M4A /isom/iso2)
File size                                : 40.2 MiB
Duration                                 : 3 min 17 s
Overall bit rate mode                    : Variable
Overall bit rate                         : 1 708 kb/s
Album                                    : My Everything (Bonus Tracks Edition)
Album/Performer                          : Ariana Grande
Part/Position                            : 1
Track name                               : One Last Time
Track name/Position                      : 3
Performer                                : Ariana Grande
Composer                                 : David Guetta, Savan Kotecha, Giorgio Tuinfort, Rami Yacoub &amp; Carl Falk
Genre                                    : Pop
Recorded date                            : 2014-08-22
Encoded date                             : 2024-04-16 19:39:08 UTC
Tagged date                              : 2024-04-16 19:39:08 UTC
Copyright                                : ℗ 2024 Republic Records, a division of UMG Recordings, Inc.
Cover                                    : Yes
Lyrics                                   : [00:09.29]I was a liar, I gave into the fire / [00:12.64]I know I should've fought it, at least I'm being honest / [00:16.86]Feel like a failure, 'cause I know that I failed you / [00:20.33]I should've done you better, 'cause you don't want a liar / [00:24.18]And I know, and I know, and I know she gives you everything / [00:27.05]But boy, I couldn't give it to you / [00:31.78]And I know, and I know, and I know that you got everything / [00:34.71]But I got nothing here without you / [00:39.45]So one last time / [00:42.32]I need to be the one who takes you home / [00:47.37]One more time / [00:50.04]I promise after that, I'll let you go / [00:55.20]Baby, I don't care if you got her in your heart / [00:59.12]All I really care is you wake up in my arms / [01:02.74]One last time / [01:05.38]I need to be the one who takes you home / [01:10.64]I don't deserve it, I know I don't deserve it / [01:14.05]But stay with me a minute, I swear I'll make it worth it / [01:18.31]Can't you forgive me, at least just temporarily? / [01:21.67]I know that this is my fault, I should've been more careful / [01:25.56]And I know, and I know, and I know she gives you everything / [01:28.53]But boy, I couldn't give it to you / [01:33.23]And I know, and I know, and I know that you got everything / [01:36.16]But I got nothing here without you, baby / [01:40.89]So one last time / [01:43.72]I need to be the one who takes you home / [01:48.77]One more time / [01:51.43]I promise after that, I'll let you go / [01:56.67]Baby, I don't care if you got her in your heart / [02:00.59]All I really care is you wake up in my arms / [02:04.16]One last time / [02:06.84]I need to be the one who takes you home / [02:15.45]I know I shouldn't fight it, at least I'm being honest, yeah / [02:23.09]But stay with me a minute, I swear I'll make it worth it, yeah / [02:29.82]'Cause I don't wanna be without you / [02:34.65]So one last time / [02:37.55]I need to be the one who takes you home / [02:42.53]One more time / [02:45.22]I promise after that, I'll let you go / [02:50.49]Baby, I don't care if you got her in your heart / [02:54.34]All I really care is you wake up in my arms / [02:57.92]One last time / [03:00.61]I need to be the one who takes you home / [03:05.66]One last time / [03:08.18]I need to be the one who takes you home

Audio
ID                                       : 2
Format                                   : ALAC
Codec ID                                 : alac
Codec ID/Info                            : Apple Lossless Audio Codec
Duration                                 : 3 min 17 s
Duration_LastFrame                       : -92 ms
Bit rate mode                            : Variable
Bit rate                                 : 1 697 kb/s
Nominal bit rate                         : 2 117 kb/s
Channel(s)                               : 2 channels
Sampling rate                            : 44.1 kHz
Bit depth                                : 24 bits
Stream size                              : 39.9 MiB (99%)
Default                                  : Yes
Alternate group                          : 1
Encoded date                             : 2024-04-16 19:39:08 UTC
Tagged date                              : 2024-04-16 19:39:08 UTC
</pre>
</div></div>
</div><b>Released:</b> Aug 22, 2014<br>
<b>Source:</b> Apple<br>
<b>File Size:</b> 1.93 GB<br>
<b>Tracklist:</b><br>
01 Intro<br>
02 Problem (feat. Iggy Azalea)<br>
03 One Last Time<br>
04 Why Try<br>
05 Break Free (feat. Zedd)<br>
06 Best Mistake (feat. Big Sean)<br>
07 Be My Baby (feat. Cashmere Cat)<br>
08 Break Your Heart Right Back (feat. Childish Gambino)<br>
09 Love Me Harder<br>
10 Just A Little Bit Of Your Heart<br>
11 Hands On Me (feat. A$AP Ferg)<br>
12 My Everything<br>
13 Bang Bang<br>
14 Only 1<br>
15 You Don't Know Me<br>
16 <img src="https://i.ibb.co/55vjynC/video.png" class="bbCodeImage LbImage" alt="[​IMG]" data-url="https://i.ibb.co/55vjynC/video.png" style=""> Problem (feat. Iggy Azalea) [Main Version]<br>
17 <img src="https://i.ibb.co/55vjynC/video.png" class="bbCodeImage LbImage" alt="[​IMG]" data-url="https://i.ibb.co/55vjynC/video.png" style=""> One Last Time<br>
18 <img src="https://i.ibb.co/55vjynC/video.png" class="bbCodeImage LbImage" alt="[​IMG]" data-url="https://i.ibb.co/55vjynC/video.png" style=""> Break Free (feat. Zedd)<br>
19 <img src="https://i.ibb.co/55vjynC/video.png" class="bbCodeImage LbImage" alt="[​IMG]" data-url="https://i.ibb.co/55vjynC/video.png" style=""> Love Me Harder<br>
20 <img src="https://i.ibb.co/55vjynC/video.png" class="bbCodeImage LbImage" alt="[​IMG]" data-url="https://i.ibb.co/55vjynC/video.png" style=""> Bang Bang (feat. Ariana Grande &amp; Nicki Minaj)<br>
<div class="bbCodeBlock bbCodeVfcHH HiddenContent">
<div class="attribution type">Hidden Content:</div>
<blockquote>You must reply before you can see the hidden data contained here.</blockquote>
</div>
<div class="messageTextEndMarker">&nbsp;</div>
</blockquote>
</article>]]></description>
                <author><![CDATA[itunesboy]]></author>
                </item>

                
                <item>
                <title><![CDATA[【Apple Music】WEB-RiP - Cleo - DOM (1080p)]]></title>
                <link><![CDATA[https://sharemania.us/threads/cleo-dom-1080p.249220/]]></link>
                <description><![CDATA[<article>
<blockquote class="messageText SelectQuoteContainer ugc baseHtml">
<img src="https://i.postimg.cc/rwx1R8rB/Cleo-DOM-mp4.jpg" class="bbCodeImage LbImage" alt="[​IMG]" data-url="https://i.postimg.cc/rwx1R8rB/Cleo-DOM-mp4.jpg" style=""><br>
<br>
<div class="bbCodeBlock bbCodeCode">
<div class="type">Code:</div>
<pre>General
Complete name                  : G:\Новая папка\Cleo - DOM.mp4
Format                         : MPEG-4
Format profile                 : Base Media
Codec ID                       : isom (isom/iso2/avc1/mp41)
File size                      : 169 MiB
Duration                       : 3 min 50 s
Overall bit rate               : 6 148 kb/s
Frame rate                     : 25.000 FPS
Movie name                     : DOM
Performer                      : Cleo
Genre                          : Pop
ContentType                    : Music Video
Recorded date                  : 2019-11-07 08:00:00 UTC
Writing application            : Lavf56.30.100
Copyright                      : ℗ 2019 STAMINA, under exclusive license to Universal Music Polska

Video
ID                             : 1
Format                         : AVC
Format/Info                    : Advanced Video Codec
Format profile                 : High@L4.1
Format settings                : CABAC / 5 Ref Frames
Format settings, CABAC         : Yes
Format settings, Reference fra : 5 frames
Format settings, Slice count   : 8 slices per frame
Codec ID                       : avc1
Codec ID/Info                  : Advanced Video Coding
Duration                       : 3 min 50 s
Bit rate                       : 5 900 kb/s
Width                          : 1 920 pixels
Height                         : 798 pixels
Display aspect ratio           : 2.40:1
Frame rate mode                : Constant
Frame rate                     : 25.000 FPS
Color space                    : YUV
Chroma subsampling             : 4:2:0
Bit depth                      : 8 bits
Scan type                      : Progressive
Bits/(Pixel*Frame)             : 0.154
Stream size                    : 162 MiB (96%)
Color range                    : Limited
Color primaries                : BT.709
Transfer characteristics       : BT.709
Matrix coefficients            : BT.709
Codec configuration box        : avcC

Audio
ID                             : 2
Format                         : AAC LC
Format/Info                    : Advanced Audio Codec Low Complexity
Codec ID                       : mp4a-40-2
Duration                       : 3 min 50 s
Duration_LastFrame             : -12 ms
Bit rate mode                  : Constant
Bit rate                       : 243 kb/s
Channel(s)                     : 2 channels
Channel layout                 : L R
Sampling rate                  : 48.0 kHz
Frame rate                     : 46.875 FPS (1024 SPF)
Compression mode               : Lossy
Stream size                    : 6.69 MiB (4%)
Default                        : Yes
Alternate group                : 1

</pre>
</div>
<div class="bbCodeBlock bbCodeVfcHH HiddenContent">
<div class="attribution type">Hidden Content:</div>
<blockquote>You must either reply or click 'Like' to see the hidden information contained here.</blockquote>
</div>
<div class="messageTextEndMarker">&nbsp;</div>
</blockquote>
</article>]]></description>
                <author><![CDATA[vitalya3]]></author>
                </item>

                
                <item>
                <title><![CDATA[【Requests】[REQ VID] - A-Ha - Take On Me (Countdown 1985) HD]]></title>
                <link><![CDATA[https://sharemania.us/threads/a-ha-take-on-me-countdown-1985-hd.249217/]]></link>
                <description><![CDATA[<article>
<blockquote class="messageText SelectQuoteContainer ugc baseHtml">
anyone can share this in good quality? thanks in advance!
<div class="messageTextEndMarker">&nbsp;</div>
</blockquote>
</article>]]></description>
                <author><![CDATA[madd lb]]></author>
                </item>

                
                <item>
                <title><![CDATA[【Albums (lossless)】ALAC - Ariana Grande - Dangerous Woman (Bonus Videos Edition) (2016) [Apple Lossless 24 bits/44,1 kHz]]]></title>
                <link><![CDATA[https://sharemania.us/threads/ariana-grande-dangerous-woman-bonus-videos-edition-2016-apple-lossless-24-bits-44-1-khz.249219/]]></link>
                <description><![CDATA[<article>
<blockquote class="messageText SelectQuoteContainer ugc baseHtml">
<img src="https://a5.mzstatic.com/us/r1000/0/Music115/v4/3f/70/0f/3f700f55-1c91-c890-8cb7-b8886f87b7f6/16UMGIM30042.rgb.jpg" class="bbCodeImage LbImage" alt="[​IMG]" data-url="https://a5.mzstatic.com/us/r1000/0/Music115/v4/3f/70/0f/3f700f55-1c91-c890-8cb7-b8886f87b7f6/16UMGIM30042.rgb.jpg" style=""><br>
<div style="text-align: center"><img src="https://bendodson.s3-eu-west-1.amazonaws.com/apple-music/lossless.png" class="bbCodeImage LbImage" alt="[​IMG]" data-url="https://bendodson.s3-eu-west-1.amazonaws.com/apple-music/lossless.png" style="">​</div>
<div class="ToggleTriggerAnchor bbCodeSpoilerContainer">
<button type="button" class="button bbCodeSpoilerButton ToggleTrigger Tooltip JsOnly" data-target="> .SpoilerTarget"><span>Spoiler: <span class="SpoilerTitle">MediaInfo</span></span></button>
<div class="SpoilerTarget bbCodeSpoilerText">
<div class="bbCodeBlock bbCodeCode">
<div class="type">Code:</div>
<pre>General
Format                                   : MPEG-4
Format profile                           : Apple audio with iTunes info
Codec ID                                 : M4A  (M4A /isom/iso2)
File size                                : 45.0 MiB
Duration                                 : 3 min 43 s
Overall bit rate mode                    : Variable
Overall bit rate                         : 1 686 kb/s
Album                                    : Dangerous Woman (Bonus Videos Edition)
Album/Performer                          : Ariana Grande
Part/Position                            : 1
Track name                               : Let Me Love You (feat. Lil Wayne)
Track name/Position                      : 6
Performer                                : Ariana Grande
Composer                                 : Ariana Grande, Lil Wayne, Thomas Brown, Steven Franks, Jeremy Felton, Victoria McCants, Matthew O'brien &amp; Trocon Markous Roberts
Genre                                    : Pop
ContentType                              : Movie
Recorded date                            : 2016-04-18
Encoded date                             : 2024-03-12 05:57:41 UTC
Tagged date                              : 2024-07-08 13:39:43 UTC
Copyright                                : ℗ 2020 Republic Records, a division of UMG Recordings, Inc.
Cover                                    : Yes
Lyrics                                   : [00:13.36]I just broke up with my ex / [00:15.75]Now I'm out here single, I don't really know what's next / [00:19.12]But I ain't even tripping, Imma chill and sit back / [00:22.50]And I know they will be coming from the right and the left, left, left / [00:27.32]I just broke up with my ex / [00:29.48]You're the one I'm feeling as I'm laying on your chest / [00:32.92]Good conversation got me holding my breath / [00:36.45]And I don't normally say this but goddamn, you're the best, best, best / [00:41.04]And if it feels right, promise I don't mind / [00:47.97]And if it feels right, promise I'll stay here all night / [00:54.81]Just let me lo-o-o-o-o-o-o-o-o-ove you, you / [01:01.59]Just let me lo-o-o-o-o-o-o-o-o-ove you, you / [01:08.49]Just let me lo-o-o-o-o-o-o-o-o-ove you, you / [01:15.42]Just let me lo-o-o-o-o-o-o-o-o-ove you, you / [01:22.58]As I'm laying on your chest / [01:24.75]I'll be out here thinking 'bout it, boy, it's just a guess / [01:28.14]But something just keeps telling me I'm better than the rest / [01:31.72]And I ain't tryna rush you, but goddamn, I'm a mess, mess, mess / [01:36.21]And if it feels right, promise I don't mind / [01:43.13]And if it feels right, promise I'll stay here all night / [01:49.96]Just let me lo-o-o-o-o-o-o-o-o-ove you, you / [01:56.88]Just let me lo-o-o-o-o-o-o-o-o-ove you, you / [02:03.88]Just let me lo-o-o-o-o-o-o-o-o-ove you, you / [02:10.78]Just let me lo-o-o-o-o-o-o-o-o-ove you, you / [02:18.79]I say, girl, you need a hot boy / [02:21.37]She say, you need to stop f*** with them thots, boy / [02:24.82]I say you need a real n*** she said yes, Lord / [02:28.12]And what you need your ex for? I'm triple X, Lord / [02:31.63]Okay, Ariana, my lil' mama, goodbye to the good girl / [02:35.40]My ex tripping, it's no Biggie, I 2Pac, shook her / [02:38.87]I'm laid up with my new thing / [02:40.47]She lay her head on my new chain / [02:42.26]Then the mood change / [02:43.19]My name changed from Lil Wayne to ooh Wayne / [02:45.75]Oh Lord, she grinding on this Grande, oh Lord / [02:49.38]I'm drowning, I'm gonna need that coast guard / [02:51.86]And when it comes to that n***, I give her amnesia / [02:55.41]She's just looking for love / [02:56.60]She says she's single and I'm her feature, oh my God / [02:58.87]You're just no good (Just let me lo-o-o-o-o-o-o-o-o-ove you) / [03:01.47]But it's time I loved you, baby (Tunechi) / [03:05.01]Mula, baby (Just let me lo-o-o-o-o-o-o-o-o-ove you) / [03:08.32]But it's time I loved you, yeah / [03:12.84]She's looking for love (Just let me lo-o-o-o-o-o-o-o-o-ove you) / [03:14.63]I'm looking for love (She's looking for love) / [03:17.69]Yeah, I'm looking for love, baby / [03:19.64]She's looking for love (Just let me lo-o-o-o-o-o-o-o-o-ove you) / [03:21.45]I'm looking for love, baby (She's just looking for love) / [03:24.77]Hey yeah (Yeah, she's just looking for love) / [03:30.01](Imma give her that love) / [03:31.70]He gon' gimme that love / [03:33.37](She's lookin' for love) / [03:35.11]Boy, I'm lookin' for love, baby (Imma give her that love) / [03:38.85](Imma give her that) / [03:40.34](Imma give her that)
rndu                                     : 0
rpdu                                     : 0

Audio
ID                                       : 2
Format                                   : ALAC
Codec ID                                 : alac
Codec ID/Info                            : Apple Lossless Audio Codec
Duration                                 : 3 min 43 s
Duration_LastFrame                       : -61 ms
Bit rate mode                            : Variable
Bit rate                                 : 1 633 kb/s
Nominal bit rate                         : 2 117 kb/s
Channel(s)                               : 2 channels
Sampling rate                            : 44.1 kHz
Bit depth                                : 24 bits
Stream size                              : 43.6 MiB (97%)
Default                                  : Yes
Alternate group                          : 1
Encoded date                             : 2024-03-12 05:57:41 UTC
Tagged date                              : 2024-07-08 13:39:43 UTC
</pre>
</div></div>
</div><b>Released:</b> May 20, 2016<br>
<b>Source:</b> Apple<br>
<b>File Size:</b> 1.68 GB<br>
<b>Tracklist:</b><br>
01 Moonlight<br>
02 Dangerous Woman<br>
03 Be Alright<br>
04 Into You<br>
05 Side To Side (feat. Nicki Minaj) <img src="https://i.ibb.co/CtZZ7yG/e.png" class="bbCodeImage LbImage" alt="[​IMG]" data-url="https://i.ibb.co/CtZZ7yG/e.png" style=""><br>
06 Let Me Love You (feat. Lil Wayne)<br>
07 Greedy<br>
08 Leave Me Lonely (feat. Macy Gray)<br>
09 Everyday (feat. Future) <img src="https://i.ibb.co/CtZZ7yG/e.png" class="bbCodeImage LbImage" alt="[​IMG]" data-url="https://i.ibb.co/CtZZ7yG/e.png" style=""><br>
10 Sometimes<br>
11 I Don't Care <img src="https://i.ibb.co/CtZZ7yG/e.png" class="bbCodeImage LbImage" alt="[​IMG]" data-url="https://i.ibb.co/CtZZ7yG/e.png" style=""><br>
12 Bad Decisions <img src="https://i.ibb.co/CtZZ7yG/e.png" class="bbCodeImage LbImage" alt="[​IMG]" data-url="https://i.ibb.co/CtZZ7yG/e.png" style=""><br>
13 Touch It<br>
14 Knew Better / Forever Boy<br>
15 Thinking Bout You <img src="https://i.ibb.co/CtZZ7yG/e.png" class="bbCodeImage LbImage" alt="[​IMG]" data-url="https://i.ibb.co/CtZZ7yG/e.png" style=""><br>
16 <img src="https://i.ibb.co/55vjynC/video.png" class="bbCodeImage LbImage" alt="[​IMG]" data-url="https://i.ibb.co/55vjynC/video.png" style=""> Dangerous Woman<br>
17 <img src="https://i.ibb.co/55vjynC/video.png" class="bbCodeImage LbImage" alt="[​IMG]" data-url="https://i.ibb.co/55vjynC/video.png" style=""> Into You<br>
18 <img src="https://i.ibb.co/55vjynC/video.png" class="bbCodeImage LbImage" alt="[​IMG]" data-url="https://i.ibb.co/55vjynC/video.png" style=""> Side To Side (feat. Nicki Minaj) <img src="https://i.ibb.co/CtZZ7yG/e.png" class="bbCodeImage LbImage" alt="[​IMG]" data-url="https://i.ibb.co/CtZZ7yG/e.png" style=""><br>
19 <img src="https://i.ibb.co/55vjynC/video.png" class="bbCodeImage LbImage" alt="[​IMG]" data-url="https://i.ibb.co/55vjynC/video.png" style=""> Let Me Love You (feat. Lil Wayne)<br>
20 <img src="https://i.ibb.co/55vjynC/video.png" class="bbCodeImage LbImage" alt="[​IMG]" data-url="https://i.ibb.co/55vjynC/video.png" style=""> Everyday (feat. Future) <img src="https://i.ibb.co/CtZZ7yG/e.png" class="bbCodeImage LbImage" alt="[​IMG]" data-url="https://i.ibb.co/CtZZ7yG/e.png" style=""><br>
<div class="bbCodeBlock bbCodeVfcHH HiddenContent">
<div class="attribution type">Hidden Content:</div>
<blockquote>You must reply before you can see the hidden data contained here.</blockquote>
</div>
<div class="messageTextEndMarker">&nbsp;</div>
</blockquote>
</article>]]></description>
                <author><![CDATA[itunesboy]]></author>
                </item>

                
                <item>
                <title><![CDATA[【Helpdesk】[HELP] Max Martin, Rami Y2K sound kit/pack]]></title>
                <link><![CDATA[https://sharemania.us/threads/help-max-martin-rami-y2k-sound-kit-pack.249221/]]></link>
                <description><![CDATA[<article>
<blockquote class="messageText SelectQuoteContainer ugc baseHtml">
<b>Basically I'm looking for the sounds, synths, drums, pads, FXs etc. that Max Martin and Rami Yacoub used in 1998-2002 for Britney Spears, BSB, NSYNC I've seen people who had them but I don't know where did they got it... They sound kinda official (even if it's a remake it's a really good one) and they even remake stems with them</b><br>
<br>
<b>For example:</b><br>
<span data-s9e-mediaembed="youtube" style="display:inline-block;width:100%;max-width:640px"><span style="display:block;overflow:hidden;position:relative;padding-bottom:56.25%"><iframe allowfullscreen="" loading="lazy" scrolling="no" style="background:url(https://i.ytimg.com/vi/vpNdcLWnVkA/hqdefault.jpg) 50% 50% / cover;border:0;height:100%;left:0;position:absolute;width:100%" src="https://www.youtube.com/embed/vpNdcLWnVkA"></iframe></span></span><br>
<span data-s9e-mediaembed="youtube" style="display:inline-block;width:100%;max-width:640px"><span style="display:block;overflow:hidden;position:relative;padding-bottom:56.25%"><iframe allowfullscreen="" loading="lazy" scrolling="no" style="background:url(https://i.ytimg.com/vi/w_WkwigsG54/hqdefault.jpg) 50% 50% / cover;border:0;height:100%;left:0;position:absolute;width:100%" src="https://www.youtube.com/embed/w_WkwigsG54"></iframe></span></span><br>
<span data-s9e-mediaembed="youtube" style="display:inline-block;width:100%;max-width:640px"><span style="display:block;overflow:hidden;position:relative;padding-bottom:56.25%"><iframe allowfullscreen="" loading="lazy" scrolling="no" style="background:url(https://i.ytimg.com/vi/2j9Au3yF-Jo/hqdefault.jpg) 50% 50% / cover;border:0;height:100%;left:0;position:absolute;width:100%" src="https://www.youtube.com/embed/2j9Au3yF-Jo"></iframe></span></span><br>
<span data-s9e-mediaembed="youtube" style="display:inline-block;width:100%;max-width:640px"><span style="display:block;overflow:hidden;position:relative;padding-bottom:56.25%"><iframe allowfullscreen="" loading="lazy" scrolling="no" style="background:url(https://i.ytimg.com/vi/ZyAaMGzymgI/hqdefault.jpg) 50% 50% / cover;border:0;height:100%;left:0;position:absolute;width:100%" src="https://www.youtube.com/embed/ZyAaMGzymgI"></iframe></span></span><br>
<span data-s9e-mediaembed="youtube" style="display:inline-block;width:100%;max-width:640px"><span style="display:block;overflow:hidden;position:relative;padding-bottom:56.25%"><iframe allowfullscreen="" loading="lazy" scrolling="no" style="background:url(https://i.ytimg.com/vi/1Lp4Br2hkVs/hqdefault.jpg) 50% 50% / cover;border:0;height:100%;left:0;position:absolute;width:100%" src="https://www.youtube.com/embed/1Lp4Br2hkVs"></iframe></span></span><br>
<b>I really wanna use these and make Y2K inspired beats</b>
<div class="messageTextEndMarker">&nbsp;</div>
</blockquote>
</article>]]></description>
                <author><![CDATA[Britneyssbloverr]]></author>
                </item>

                
                <item>
                <title><![CDATA[【Apple Music】WEB-RiP - Margaret - Cool Me Down (1080p)]]></title>
                <link><![CDATA[https://sharemania.us/threads/margaret-cool-me-down-1080p.249218/]]></link>
                <description><![CDATA[<article>
<blockquote class="messageText SelectQuoteContainer ugc baseHtml">
<img src="https://i.postimg.cc/LXZjt2YK/Margaret-Cool-Me-Down-mp4.jpg" class="bbCodeImage LbImage" alt="[​IMG]" data-url="https://i.postimg.cc/LXZjt2YK/Margaret-Cool-Me-Down-mp4.jpg" style=""><br>
<br>
<div class="bbCodeBlock bbCodeCode">
<div class="type">Code:</div>
<pre>General
Complete name                  : G:\Новая папка\Margaret - Cool Me Down.mp4
Format                         : MPEG-4
Format profile                 : Base Media
Codec ID                       : isom (isom/iso2/avc1/mp41)
File size                      : 218 MiB
Duration                       : 3 min 0 s
Overall bit rate               : 10.1 Mb/s
Frame rate                     : 25.000 FPS
Movie name                     : Cool Me Down
Performer                      : Margaret
Genre                          : Pop
ContentType                    : Music Video
Recorded date                  : 2016-05-24 07:00:00 UTC
Writing application            : Lavf56.30.100
Copyright                      : ℗ 2016 Warner Music Sweden AB under exclusive license from Extensive Music DMCC

Video
ID                             : 1
Format                         : AVC
Format/Info                    : Advanced Video Codec
Format profile                 : High@L4
Format settings                : CABAC / 5 Ref Frames
Format settings, CABAC         : Yes
Format settings, Reference fra : 5 frames
Format settings, GOP           : N=1
Format settings, Slice count   : 8 slices per frame
Codec ID                       : avc1
Codec ID/Info                  : Advanced Video Coding
Duration                       : 3 min 0 s
Bit rate                       : 9 850 kb/s
Width                          : 1 920 pixels
Height                         : 800 pixels
Display aspect ratio           : 2.40:1
Frame rate mode                : Constant
Frame rate                     : 25.000 FPS
Color space                    : YUV
Chroma subsampling             : 4:2:0
Bit depth                      : 8 bits
Scan type                      : Progressive
Bits/(Pixel*Frame)             : 0.257
Stream size                    : 212 MiB (97%)
Color range                    : Limited
Color primaries                : BT.709
Transfer characteristics       : BT.709
Matrix coefficients            : BT.709
Codec configuration box        : avcC

Audio
ID                             : 2
Format                         : AAC LC
Format/Info                    : Advanced Audio Codec Low Complexity
Codec ID                       : mp4a-40-2
Duration                       : 3 min 0 s
Duration_LastFrame             : -7 ms
Bit rate mode                  : Constant
Bit rate                       : 250 kb/s
Channel(s)                     : 2 channels
Channel layout                 : L R
Sampling rate                  : 48.0 kHz
Frame rate                     : 46.875 FPS (1024 SPF)
Compression mode               : Lossy
Stream size                    : 5.39 MiB (2%)
Default                        : Yes
Alternate group                : 1

</pre>
</div>
<div class="bbCodeBlock bbCodeVfcHH HiddenContent">
<div class="attribution type">Hidden Content:</div>
<blockquote>You must either reply or click 'Like' to see the hidden information contained here.</blockquote>
</div>
<div class="messageTextEndMarker">&nbsp;</div>
</blockquote>
</article>]]></description>
                <author><![CDATA[vitalya3]]></author>
                </item>

                
                <item>
                <title><![CDATA[【Apple Music】WEB-RiP - Margaret &amp; Janusz Walczuk - Początek (1080p)]]></title>
                <link><![CDATA[https://sharemania.us/threads/margaret-janusz-walczuk-pocz%C4%85tek-1080p.249213/]]></link>
                <description><![CDATA[<article>
<blockquote class="messageText SelectQuoteContainer ugc baseHtml">
<img src="https://i.postimg.cc/jSXTjTCc/Margaret-Janusz-Walczuk-Pocz-tek-mp4.jpg" class="bbCodeImage LbImage" alt="[​IMG]" data-url="https://i.postimg.cc/jSXTjTCc/Margaret-Janusz-Walczuk-Pocz-tek-mp4.jpg" style=""><br>
<br>
<div class="bbCodeBlock bbCodeCode">
<div class="type">Code:</div>
<pre>General
Complete name                  : G:\Новая папка\Margaret &amp; Janusz Walczuk - Początek.mp4
Format                         : MPEG-4
Format profile                 : Base Media
Codec ID                       : isom (isom/iso2/avc1/mp41)
File size                      : 111 MiB
Duration                       : 2 min 15 s
Overall bit rate               : 6 912 kb/s
Frame rate                     : 25.000 FPS
Movie name                     : Początek
Performer                      : Margaret &amp; Janusz Walczuk
Genre                          : Pop
ContentType                    : Music Video
Recorded date                  : 2023-02-17 08:00:00 UTC
Writing application            : Lavf56.30.100
Copyright                      : ℗ (C) 2023 Gaja Hornby Records

Video
ID                             : 1
Format                         : AVC
Format/Info                    : Advanced Video Codec
Format profile                 : High@L4
Format settings                : CABAC / 5 Ref Frames
Format settings, CABAC         : Yes
Format settings, Reference fra : 5 frames
Format settings, Slice count   : 8 slices per frame
Codec ID                       : avc1
Codec ID/Info                  : Advanced Video Coding
Duration                       : 2 min 15 s
Bit rate                       : 6 644 kb/s
Width                          : 1 918 pixels
Height                         : 710 pixels
Display aspect ratio           : 2.701
Frame rate mode                : Constant
Frame rate                     : 25.000 FPS
Color space                    : YUV
Chroma subsampling             : 4:2:0
Bit depth                      : 8 bits
Scan type                      : Progressive
Bits/(Pixel*Frame)             : 0.195
Stream size                    : 107 MiB (96%)
Color range                    : Limited
Color primaries                : BT.709
Transfer characteristics       : BT.709
Matrix coefficients            : BT.709
Codec configuration box        : avcC

Audio
ID                             : 2
Format                         : AAC LC
Format/Info                    : Advanced Audio Codec Low Complexity
Codec ID                       : mp4a-40-2
Duration                       : 2 min 15 s
Duration_LastFrame             : -1 ms
Bit rate mode                  : Constant
Bit rate                       : 265 kb/s
Channel(s)                     : 2 channels
Channel layout                 : L R
Sampling rate                  : 48.0 kHz
Frame rate                     : 46.875 FPS (1024 SPF)
Compression mode               : Lossy
Stream size                    : 4.24 MiB (4%)
Default                        : Yes
Alternate group                : 1

</pre>
</div>
<div class="bbCodeBlock bbCodeVfcHH HiddenContent">
<div class="attribution type">Hidden Content:</div>
<blockquote>You must either reply or click 'Like' to see the hidden information contained here.</blockquote>
</div>
<div class="messageTextEndMarker">&nbsp;</div>
</blockquote>
</article>]]></description>
                <author><![CDATA[vitalya3]]></author>
                </item>

                
                <item>
                <title><![CDATA[【Apple Music】WEB-RiP - Margaret &amp; Natalia Szroeder - Sold Out (1080p)]]></title>
                <link><![CDATA[https://sharemania.us/threads/margaret-natalia-szroeder-sold-out-1080p.249216/]]></link>
                <description><![CDATA[<article>
<blockquote class="messageText SelectQuoteContainer ugc baseHtml">
<img src="http://[URL]https://i.postimg.cc/pXrcjt0k/Margaret-Natalia-Szroeder-Sold-Out-mp4.jpg" class="bbCodeImage LbImage" alt="[​IMG]" data-url="http://[URL]https://i.postimg.cc/pXrcjt0k/Margaret-Natalia-Szroeder-Sold-Out-mp4.jpg" style=""><img src="https://i.postimg.cc/pXrcjt0k/Margaret-Natalia-Szroeder-Sold-Out-mp4.jpg" class="bbCodeImage LbImage" alt="[​IMG]" data-url="https://i.postimg.cc/pXrcjt0k/Margaret-Natalia-Szroeder-Sold-Out-mp4.jpg" style=""><br>
<br>
<div class="bbCodeBlock bbCodeCode">
<div class="type">Code:</div>
<pre>General
Complete name                  : G:\Новая папка\Margaret &amp; Natalia Szroeder - Sold Out.mp4
Format                         : MPEG-4
Format profile                 : Base Media
Codec ID                       : isom (isom/iso2/avc1/mp41)
File size                      : 230 MiB
Duration                       : 3 min 8 s
Overall bit rate               : 10.2 Mb/s
Frame rate                     : 25.000 FPS
Movie name                     : Sold Out
Performer                      : Margaret &amp; Natalia Szroeder
Genre                          : Pop
ContentType                    : Music Video
Recorded date                  : 2021-02-13 08:00:00 UTC
Writing application            : Lavf56.30.100
Copyright                      : ℗ (C) 2021 Sony Music Entertainment Poland Sp. z o. o. na wylacznej licencji Gaja Hornby Records

Video
ID                             : 1
Format                         : AVC
Format/Info                    : Advanced Video Codec
Format profile                 : High@L4
Format settings                : CABAC / 4 Ref Frames
Format settings, CABAC         : Yes
Format settings, Reference fra : 4 frames
Format settings, Slice count   : 8 slices per frame
Codec ID                       : avc1
Codec ID/Info                  : Advanced Video Coding
Duration                       : 3 min 8 s
Bit rate                       : 9 951 kb/s
Width                          : 1 920 pixels
Height                         : 1 080 pixels
Display aspect ratio           : 16:9
Frame rate mode                : Constant
Frame rate                     : 25.000 FPS
Color space                    : YUV
Chroma subsampling             : 4:2:0
Bit depth                      : 8 bits
Scan type                      : Progressive
Bits/(Pixel*Frame)             : 0.192
Stream size                    : 224 MiB (98%)
Color range                    : Limited
Color primaries                : BT.709
Transfer characteristics       : BT.709
Matrix coefficients            : BT.709
Codec configuration box        : avcC

Audio
ID                             : 2
Format                         : AAC LC
Format/Info                    : Advanced Audio Codec Low Complexity
Codec ID                       : mp4a-40-2
Duration                       : 3 min 8 s
Duration_LastFrame             : -15 ms
Bit rate mode                  : Constant
Bit rate                       : 248 kb/s
Channel(s)                     : 2 channels
Channel layout                 : L R
Sampling rate                  : 48.0 kHz
Frame rate                     : 46.875 FPS (1024 SPF)
Compression mode               : Lossy
Stream size                    : 5.59 MiB (2%)
Default                        : Yes
Alternate group                : 1

</pre>
</div>
<div class="bbCodeBlock bbCodeVfcHH HiddenContent">
<div class="attribution type">Hidden Content:</div>
<blockquote>You must either reply or click 'Like' to see the hidden information contained here.</blockquote>
</div>
<div class="messageTextEndMarker">&nbsp;</div>
</blockquote>
</article>]]></description>
                <author><![CDATA[vitalya3]]></author>
                </item>

                </channel></rss>